<svg width="32" height="32" viewBox="0 0 40 40" fill="none" xmlns="http://www.w3.org/2000/svg">
  <circle cx="20" cy="20" r="18" stroke="#2d6a4f" stroke-width="1" opacity="0.25"/>
  <path d="M20,3 Q31,3 33,13 Q35,19 28,22 Q22,24 20,20 Q17,16 20,12 Q23,9 25,13 Q26,17 22,18" fill="#2d6a4f" opacity="0.92"/>
  <circle cx="29" cy="9" r="1.8" fill="#f5f0e8"/>
  <path d="M20,3 Q15,0 12,3 Q16,3 20,3Z" fill="#2d6a4f" opacity="0.55"/>
  <path d="M20,37 Q9,37 7,27 Q5,21 12,18 Q18,16 20,20 Q23,24 20,28 Q17,31 15,27 Q14,23 18,22" fill="#2d6a4f" opacity="0.45"/>
  <circle cx="11" cy="31" r="1.8" fill="#f5f0e8"/>
  <path d="M20,37 Q25,40 28,37 Q24,37 20,37Z" fill="#2d6a4f" opacity="0.3"/>
</svg>
