<svg xmlns="http://www.w3.org/2000/svg" viewBox="0 0 800 450" width="800" height="450">
  <defs>
    <linearGradient id="paper" x1="0" y1="0" x2="1" y2="1">
      <stop offset="0" stop-color="#f2ece0" />
      <stop offset="1" stop-color="#ddd5c3" />
    </linearGradient>
    <radialGradient id="wash" cx="0.5" cy="0.46" r="0.55">
      <stop offset="0" stop-color="#2d6a4f" stop-opacity="0.14" />
      <stop offset="1" stop-color="#2d6a4f" stop-opacity="0" />
    </radialGradient>
  </defs>

  <rect width="800" height="450" fill="url(#paper)" />
  <ellipse cx="400" cy="207" rx="310" ry="175" fill="url(#wash)" />

  <g stroke="#2d6a4f" fill="none" stroke-width="4" opacity="0.45">
    <path d="M400 105 L523 176 L523 318 L400 389 L277 318 L277 176 Z" stroke-linejoin="round" />
  </g>

  <g stroke="#2d6a4f" fill="none" stroke-width="3" opacity="0.28">
    <line x1="400" y1="105" x2="400" y2="247" />
    <line x1="523" y1="176" x2="400" y2="247" />
    <line x1="523" y1="318" x2="400" y2="247" />
    <line x1="400" y1="389" x2="400" y2="247" />
    <line x1="277" y1="318" x2="400" y2="247" />
    <line x1="277" y1="176" x2="400" y2="247" />
  </g>

  <g fill="#f2ece0" stroke="#2d6a4f" stroke-width="4" opacity="0.6">
    <circle cx="400" cy="105" r="17" />
    <circle cx="523" cy="176" r="17" />
    <circle cx="523" cy="318" r="17" />
    <circle cx="400" cy="389" r="17" />
    <circle cx="277" cy="318" r="17" />
    <circle cx="277" cy="176" r="17" />
  </g>

  <circle cx="400" cy="247" r="22" fill="#f2ece0" stroke="#d4a820" stroke-width="5" opacity="0.75" />
</svg>
